<?xml version="1.0" encoding="UTF-8"?>
<!-- Generator: visioncortex VTracer 0.6.12 -->
<svg version="1.1" xmlns="http://www.w3.org/2000/svg" width="588" height="140"><path d="M0 0 C2.3100000000000023 0 4.6200000000000045 0 7 0 C7 36.96 7 73.92 7 112 C4.689999999999998 112 2.3799999999999955 112 0 112 C0 116.62 0 121.24 0 126 C-13.860000000000014 126 -27.720000000000027 126 -42 126 C-42 121.38 -42 116.76 -42 112 C-44.31 112 -46.620000000000005 112 -49 112 C-49 102.76 -49 93.52 -49 84 C-51.31 84 -53.620000000000005 84 -56 84 C-56 60.9 -56 37.8 -56 14 C-51.379999999999995 14 -46.75999999999999 14 -42 14 C-42 27.86 -42 41.72 -42 56 C-39.69 56 -37.379999999999995 56 -35 56 C-35 65.24 -35 74.48 -35 84 C-32.69 84 -30.379999999999995 84 -28 84 C-28 88.62 -28 93.24 -28 98 C-23.379999999999995 98 -18.75999999999999 98 -14 98 C-14 93.38 -14 88.76 -14 84 C-16.310000000000002 84 -18.620000000000005 84 -21 84 C-21 74.76 -21 65.52 -21 56 C-23.310000000000002 56 -25.620000000000005 56 -28 56 C-28 46.76 -28 37.519999999999996 -28 28 C-23.379999999999995 28 -18.75999999999999 28 -14 28 C-14 23.38 -14 18.759999999999998 -14 14 C-9.379999999999995 14 -4.759999999999991 14 0 14 C0 9.379999999999999 0 4.76 0 0 Z " fill="#000000" transform="translate(294,0)"/>
<path d="M0 0 C0.402187500000025 0.010312499999999503 0.402187500000025 0.010312499999999503 2.4375 0.0625 C3.5625 3.8125 3.5625 3.8125 2.4375 6.0625 C0.7875000000000227 6.0625 -0.8625000000000114 6.0625 -2.5625 6.0625 C-2.944687670824578 4.406353426426708 -3.276451017214981 2.737929756312255 -3.5625 1.0625 C-2.5625 0.0625 -2.5625 0.0625 0 0 Z " fill="#000000" transform="translate(259.5625,9.9375)"/>
<path d="M0 0 C2.9700000000000273 0 5.939999999999998 0 9 0 C9 2.9700000000000006 9 5.940000000000001 9 9 C6.029999999999973 9 3.0600000000000023 9 0 9 C0 6.030000000000001 0 3.0599999999999987 0 0 Z " fill="#000000" transform="translate(311,11)"/>
<path d="M0 0 C9.240000000000002 0 18.480000000000004 0 28 0 C28 4.620000000000001 28 9.240000000000002 28 14 C23.380000000000003 14 18.759999999999998 14 14 14 C14 32.480000000000004 14 50.96000000000001 14 70 C18.619999999999997 70 23.240000000000002 70 28 70 C28 65.38 28 60.75999999999999 28 56 C37.24 56 46.480000000000004 56 56 56 C56 60.620000000000005 56 65.24 56 70 C53.69 70 51.379999999999995 70 49 70 C49 79.24 49 88.48 49 98 C46.69 98 44.38 98 42 98 C42 102.62 42 107.24 42 112 C28.14 112 14.279999999999998 112 0 112 C0 107.38 0 102.76 0 98 C-2.3100000000000005 98 -4.620000000000001 98 -7 98 C-7 88.76 -7 79.52 -7 70 C-9.31 70 -11.620000000000001 70 -14 70 C-14 60.75999999999999 -14 51.519999999999996 -14 42 C-11.69 42 -9.379999999999999 42 -7 42 C-7 32.76 -7 23.519999999999996 -7 14 C-4.6899999999999995 14 -2.379999999999999 14 0 14 C0 9.379999999999999 0 4.759999999999998 0 0 Z " fill="#000000" transform="translate(14,14)"/>
<path d="M0 0 C13.860000000000014 0 27.72 0 42 0 C42 4.620000000000001 42 9.240000000000002 42 14 C46.620000000000005 14 51.24000000000001 14 56 14 C56 23.240000000000002 56 32.480000000000004 56 42 C58.31 42 60.620000000000005 42 63 42 C63 51.24000000000001 63 60.480000000000004 63 70 C60.69 70 58.379999999999995 70 56 70 C56 79.24 56 88.48 56 98 C51.379999999999995 98 46.75999999999999 98 42 98 C42 107.24 42 116.48000000000002 42 126 C37.379999999999995 126 32.75999999999999 126 28 126 C28 121.38 28 116.75999999999999 28 112 C18.75999999999999 112 9.52000000000001 112 0 112 C0 107.38 0 102.76 0 98 C-2.3100000000000023 98 -4.6200000000000045 98 -7 98 C-7 88.76 -7 79.52 -7 70 C-9.310000000000002 70 -11.620000000000005 70 -14 70 C-14 60.75999999999999 -14 51.519999999999996 -14 42 C-11.689999999999998 42 -9.379999999999995 42 -7 42 C-7 32.76 -7 23.519999999999996 -7 14 C-4.689999999999998 14 -2.3799999999999955 14 0 14 C0 9.379999999999999 0 4.759999999999998 0 0 Z M14 14 C14 18.620000000000005 14 23.240000000000002 14 28 C9.379999999999995 28 4.759999999999991 28 0 28 C0 32.620000000000005 0 37.24 0 42 C2.3100000000000023 42 4.6200000000000045 42 7 42 C7 51.24000000000001 7 60.480000000000004 7 70 C9.310000000000002 70 11.620000000000005 70 14 70 C14 79.24 14 88.48 14 98 C18.620000000000005 98 23.24000000000001 98 28 98 C28 93.38 28 88.76 28 84 C32.620000000000005 84 37.24000000000001 84 42 84 C42 65.52 42 47.04 42 28 C37.379999999999995 28 32.75999999999999 28 28 28 C28 23.379999999999995 28 18.759999999999998 28 14 C23.379999999999995 14 18.75999999999999 14 14 14 Z " fill="#000000" transform="translate(168,14)"/>
<path d="M0 0 C18.480000000000018 0 36.95999999999998 0 56 0 C56 4.620000000000001 56 9.240000000000002 56 14 C60.620000000000005 14 65.24000000000001 14 70 14 C70 27.86 70 41.72 70 56 C74.62 56 79.24000000000001 56 84 56 C84 69.86 84 83.72 84 98 C79.38 98 74.75999999999999 98 70 98 C70 102.62 70 107.24 70 112 C51.51999999999998 112 33.04000000000002 112 14 112 C14 107.38 14 102.76 14 98 C9.379999999999995 98 4.759999999999991 98 0 98 C0 88.76 0 79.52 0 70 C2.3100000000000023 70 4.6200000000000045 70 7 70 C7 51.519999999999996 7 33.04 7 14 C4.689999999999998 14 2.3799999999999955 14 0 14 C0 9.379999999999999 0 4.759999999999998 0 0 Z M28 14 C28 23.240000000000002 28 32.480000000000004 28 42 C37.24000000000001 42 46.48000000000002 42 56 42 C56 37.379999999999995 56 32.76 56 28 C51.379999999999995 28 46.75999999999999 28 42 28 C42 23.379999999999995 42 18.759999999999998 42 14 C37.379999999999995 14 32.75999999999999 14 28 14 Z M28 56 C28 65.24 28 74.48 28 84 C32.620000000000005 84 37.24000000000001 84 42 84 C42 88.62 42 93.24000000000001 42 98 C48.93000000000001 98 55.860000000000014 98 63 98 C63 88.75999999999999 63 79.52 63 70 C60.69 70 58.379999999999995 70 56 70 C56 65.38 56 60.75999999999999 56 56 C46.75999999999999 56 37.51999999999998 56 28 56 Z " fill="#000000" transform="translate(350,14)"/>
<path d="M0 0 C23.100000000000023 0 46.200000000000045 0 70 0 C70 4.620000000000001 70 9.240000000000002 70 14 C60.75999999999999 14 51.51999999999998 14 42 14 C42 32.480000000000004 42 50.96000000000001 42 70 C44.309999999999945 70 46.620000000000005 70 49 70 C49 79.24 49 88.48 49 98 C51.309999999999945 98 53.620000000000005 98 56 98 C56 102.62 56 107.24 56 112 C42.139999999999986 112 28.279999999999973 112 14 112 C14 107.38 14 102.76 14 98 C16.309999999999945 98 18.620000000000005 98 21 98 C21 79.52 21 61.03999999999999 21 42 C18.690000000000055 42 16.379999999999995 42 14 42 C14 32.76 14 23.519999999999996 14 14 C9.379999999999995 14 4.759999999999991 14 0 14 C0 9.379999999999999 0 4.759999999999998 0 0 Z " fill="#000000" transform="translate(518,14)"/>
<path d="M0 0 C1.3199999999999932 0 2.6399999999999864 0 4 0 C4 1.6499999999999986 4 3.3000000000000007 4 5 C2.680000000000007 5 1.3600000000000136 5 0 5 C0 3.3500000000000014 0 1.6999999999999993 0 0 Z " fill="#000000" transform="translate(159,17)"/>
<path d="M0 0 C2.3100000000000023 0 4.619999999999997 0 7 0 C7 9.240000000000002 7 18.480000000000004 7 28 C4.689999999999998 28 2.3800000000000026 28 0 28 C0 18.759999999999998 0 9.519999999999996 0 0 Z " fill="#000000" transform="translate(42,28)"/>
<path d="M0 0 C9.240000000000009 0 18.480000000000018 0 28 0 C28 18.480000000000004 28 36.96000000000001 28 56 C30.310000000000002 56 32.620000000000005 56 35 56 C35 65.24 35 74.48 35 84 C37.31 84 39.620000000000005 84 42 84 C42 88.62 42 93.24 42 98 C28.139999999999986 98 14.279999999999973 98 0 98 C0 93.38 0 88.76 0 84 C2.3100000000000023 84 4.6200000000000045 84 7 84 C7 65.52 7 47.03999999999999 7 28 C4.689999999999998 28 2.3799999999999955 28 0 28 C0 18.759999999999998 0 9.519999999999996 0 0 Z " fill="#000000" transform="translate(308,28)"/>
<path d="M0 0 C0.4021874999999966 0.010312499999997726 0.4021874999999966 0.010312499999997726 2.4375 0.0625 C3.5625 3.8125 3.5625 3.8125 2.4375 6.0625 C0.7874999999999943 6.0625 -0.8625000000000114 6.0625 -2.5625 6.0625 C-2.9446876708246066 4.406353426426712 -3.276451017214981 2.737929756312255 -3.5625 1.0625 C-2.5625 0.0625 -2.5625 0.0625 0 0 Z " fill="#000000" transform="translate(189.5625,37.9375)"/>
<path d="M0 0 C0.40218749999996817 0.010312499999997726 0.40218749999996817 0.010312499999997726 2.4375 0.0625 C3.5625 3.8125 3.5625 3.8125 2.4375 6.0625 C0.7875000000000227 6.0625 -0.8624999999999545 6.0625 -2.5625 6.0625 C-2.944687670824578 4.406353426426712 -3.276451017214981 2.737929756312255 -3.5625 1.0625 C-2.5625 0.0625 -2.5625 0.0625 0 0 Z " fill="#000000" transform="translate(525.5625,37.9375)"/>
<path d="M0 0 C2.969999999999999 0 5.939999999999998 0 9 0 C9 2.969999999999999 9 5.939999999999998 9 9 C6.030000000000001 9 3.0600000000000023 9 0 9 C0 6.030000000000001 0 3.0600000000000023 0 0 Z " fill="#000000" transform="translate(59,39)"/>
<path d="M0 0 C2.969999999999999 0 5.939999999999998 0 9 0 C9 2.969999999999999 9 5.939999999999998 9 9 C6.030000000000001 9 3.0600000000000023 9 0 9 C0 6.030000000000001 0 3.0600000000000023 0 0 Z " fill="#000000" transform="translate(73,39)"/>
<path d="M0 0 C2.9700000000000273 0 5.939999999999998 0 9 0 C9 2.969999999999999 9 5.939999999999998 9 9 C6.029999999999973 9 3.0600000000000023 9 0 9 C0 6.030000000000001 0 3.0600000000000023 0 0 Z " fill="#000000" transform="translate(255,39)"/>
<path d="M0 0 C2.9700000000000273 0 5.939999999999998 0 9 0 C9 2.969999999999999 9 5.939999999999998 9 9 C6.029999999999973 9 3.0600000000000023 9 0 9 C0 6.030000000000001 0 3.0600000000000023 0 0 Z " fill="#000000" transform="translate(423,39)"/>
<path d="M0 0 C2.9700000000000273 0 5.939999999999998 0 9 0 C9 2.969999999999999 9 5.939999999999998 9 9 C6.029999999999973 9 3.0600000000000023 9 0 9 C0 6.030000000000001 0 3.0600000000000023 0 0 Z " fill="#000000" transform="translate(437,39)"/>
<path d="M0 0 C9.240000000000009 0 18.480000000000004 0 28 0 C28 4.619999999999997 28 9.239999999999995 28 14 C23.379999999999995 14 18.75999999999999 14 14 14 C14 18.620000000000005 14 23.24000000000001 14 28 C11.689999999999998 28 9.379999999999995 28 7 28 C7 37.24000000000001 7 46.480000000000004 7 56 C9.310000000000002 56 11.620000000000005 56 14 56 C14 60.620000000000005 14 65.24 14 70 C18.620000000000005 70 23.24000000000001 70 28 70 C28 74.62 28 79.24000000000001 28 84 C18.75999999999999 84 9.519999999999996 84 0 84 C0 79.38 0 74.75999999999999 0 70 C-4.6200000000000045 70 -9.239999999999995 70 -14 70 C-14 65.38 -14 60.75999999999999 -14 56 C-16.310000000000002 56 -18.620000000000005 56 -21 56 C-21 46.75999999999999 -21 37.519999999999996 -21 28 C-18.689999999999998 28 -16.379999999999995 28 -14 28 C-14 23.379999999999995 -14 18.75999999999999 -14 14 C-9.379999999999995 14 -4.759999999999991 14 0 14 C0 9.379999999999995 0 4.759999999999998 0 0 Z " fill="#000000" transform="translate(98,56)"/>
<path d="M0 0 C9.240000000000009 0 18.480000000000018 0 28 0 C28 4.619999999999997 28 9.239999999999995 28 14 C23.379999999999995 14 18.75999999999999 14 14 14 C14 18.620000000000005 14 23.24000000000001 14 28 C11.689999999999998 28 9.379999999999995 28 7 28 C7 37.24000000000001 7 46.480000000000004 7 56 C9.310000000000002 56 11.620000000000005 56 14 56 C14 60.620000000000005 14 65.24 14 70 C18.620000000000005 70 23.24000000000001 70 28 70 C28 74.62 28 79.24000000000001 28 84 C18.75999999999999 84 9.519999999999982 84 0 84 C0 79.38 0 74.75999999999999 0 70 C-4.6200000000000045 70 -9.240000000000009 70 -14 70 C-14 65.38 -14 60.75999999999999 -14 56 C-16.310000000000002 56 -18.620000000000005 56 -21 56 C-21 46.75999999999999 -21 37.519999999999996 -21 28 C-18.689999999999998 28 -16.379999999999995 28 -14 28 C-14 23.379999999999995 -14 18.75999999999999 -14 14 C-9.379999999999995 14 -4.759999999999991 14 0 14 C0 9.379999999999995 0 4.759999999999998 0 0 Z " fill="#000000" transform="translate(462,56)"/>
<path d="M0 0 C2.9700000000000273 0 5.940000000000055 0 9 0 C9 2.969999999999999 9 5.939999999999998 9 9 C6.029999999999973 9 3.0599999999999454 9 0 9 C0 6.030000000000001 0 3.0600000000000023 0 0 Z " fill="#000000" transform="translate(577,67)"/>
<path d="M0 0 C4.6200000000000045 0 9.240000000000009 0 14 0 C14 4.6200000000000045 14 9.239999999999995 14 14 C16.310000000000002 14 18.620000000000005 14 21 14 C21 23.24000000000001 21 32.480000000000004 21 42 C18.689999999999998 42 16.379999999999995 42 14 42 C14 46.620000000000005 14 51.24000000000001 14 56 C9.379999999999995 56 4.759999999999991 56 0 56 C0 51.379999999999995 0 46.75999999999999 0 42 C2.3100000000000023 42 4.6200000000000045 42 7 42 C7 32.75999999999999 7 23.519999999999996 7 14 C4.689999999999998 14 2.3799999999999955 14 0 14 C0 9.379999999999995 0 4.760000000000005 0 0 Z " fill="#000000" transform="translate(126,70)"/>
<path d="M0 0 C4.6200000000000045 0 9.240000000000009 0 14 0 C14 4.6200000000000045 14 9.239999999999995 14 14 C16.310000000000002 14 18.620000000000005 14 21 14 C21 23.24000000000001 21 32.480000000000004 21 42 C18.689999999999998 42 16.379999999999995 42 14 42 C14 46.620000000000005 14 51.24000000000001 14 56 C9.379999999999995 56 4.759999999999991 56 0 56 C0 51.379999999999995 0 46.75999999999999 0 42 C2.3100000000000023 42 4.6200000000000045 42 7 42 C7 32.75999999999999 7 23.519999999999996 7 14 C4.689999999999998 14 2.3799999999999955 14 0 14 C0 9.379999999999995 0 4.760000000000005 0 0 Z " fill="#000000" transform="translate(490,70)"/>
<path d="M0 0 C1.3199999999999932 0 2.6399999999999864 0 4 0 C4 1.6500000000000057 4 3.299999999999997 4 5 C2.680000000000007 5 1.3600000000000136 5 0 5 C0 3.3499999999999943 0 1.7000000000000028 0 0 Z " fill="#000000" transform="translate(201,73)"/>
<path d="M0 0 C1.32000000000005 0 2.6399999999999864 0 4 0 C4 1.6500000000000057 4 3.299999999999997 4 5 C2.67999999999995 5 1.3600000000000136 5 0 5 C0 3.3499999999999943 0 1.7000000000000028 0 0 Z " fill="#000000" transform="translate(565,73)"/>
<path d="M0 0 C2.969999999999999 0 5.939999999999998 0 9 0 C9 2.969999999999999 9 5.939999999999998 9 9 C6.030000000000001 9 3.0600000000000023 9 0 9 C0 6.030000000000001 0 3.0600000000000023 0 0 Z " fill="#000000" transform="translate(185,95)"/>
<path d="M0 0 C2.9700000000000273 0 5.939999999999998 0 9 0 C9 2.969999999999999 9 5.939999999999998 9 9 C6.029999999999973 9 3.0600000000000023 9 0 9 C0 6.030000000000001 0 3.0600000000000023 0 0 Z " fill="#000000" transform="translate(395,95)"/>
<path d="M0 0 C1.3199999999999932 0 2.6400000000000006 0 4 0 C4 1.6500000000000057 4 3.299999999999997 4 5 C2.680000000000007 5 1.3599999999999994 5 0 5 C0 3.3499999999999943 0 1.7000000000000028 0 0 Z " fill="#000000" transform="translate(117,101)"/>
<path d="M0 0 C1.3199999999999932 0 2.6399999999999864 0 4 0 C4 1.6500000000000057 4 3.299999999999997 4 5 C2.680000000000007 5 1.3600000000000136 5 0 5 C0 3.3499999999999943 0 1.7000000000000028 0 0 Z " fill="#000000" transform="translate(481,101)"/>
<path d="M0 0 C2.969999999999999 0 5.939999999999998 0 9 0 C9 2.969999999999999 9 5.939999999999998 9 9 C6.030000000000001 9 3.0600000000000023 9 0 9 C0 6.030000000000001 0 3.0600000000000023 0 0 Z " fill="#000000" transform="translate(143,123)"/>
<path d="M0 0 C2.9700000000000273 0 5.940000000000055 0 9 0 C9 2.969999999999999 9 5.939999999999998 9 9 C6.029999999999973 9 3.0600000000000023 9 0 9 C0 6.030000000000001 0 3.0600000000000023 0 0 Z " fill="#000000" transform="translate(507,123)"/>
<path d="M0 0 C1.3199999999999932 0 2.6399999999999864 0 4 0 C4 1.6500000000000057 4 3.3000000000000114 4 5 C2.680000000000007 5 1.3600000000000136 5 0 5 C0 3.3499999999999943 0 1.6999999999999886 0 0 Z " fill="#000000" transform="translate(215,129)"/>
</svg>
